# xmcd
#
# Track frame offsets:
# 150
# 24220
# 43641
# 60288
# 77914
# 100154
# 116405
# 133716
# 149726
# 174139
# 192124
# 213775
#
# Disc length: 3107 seconds
#
#
# Revision: 0
# Processed by: cddbd v1.5PL3 Copyright (c) Steve Scherf et al.
# Submitted via: FreeRIP 2.53 
#
DISCID=970c210c
DTITLE=Urban, Keith - Golden Road
DYEAR=1900
DGENRE=Country
TTITLE0=Somebody Like You
TTITLE1=Who Wouldn't Wanna Be
TTITLE2=Whenever I Run
TTITLE3=Waht About Me
TTITLE4=You'll Think Of Me
TTITLE5=Blue Jeans
TTITLE6=You Look Good In My Shirt
TTITLE7=You're Not Alone Tonight
TTITLE8=You Won
TTITLE9=Song For Dad
TTITLE10=Raining On Sinday
TTITLE11=You're Not My God
EXTD=
EXTT0=
EXTT1=
EXTT2=
EXTT3=
EXTT4=
EXTT5=
EXTT6=
EXTT7=
EXTT8=
EXTT9=
EXTT10=
EXTT11=
PLAYORDER=
